<svg xmlns="http://www.w3.org/2000/svg" xmlns:xlink="http://www.w3.org/1999/xlink" viewBox="0,0,256,256" width="200px" height="200px"><defs><linearGradient x1="21.893" y1="7.481" x2="26.848" y2="40.144" gradientUnits="userSpaceOnUse" id="color-1"><stop offset="0" stop-color="#00a3a6"></stop><stop offset="0.5" stop-color="#038489"></stop><stop offset="1" stop-color="#026d71"></stop></linearGradient></defs><g fill="url(#color-1)" fill-rule="nonzero" stroke="none" stroke-width="1" stroke-linecap="butt" stroke-linejoin="miter" stroke-miterlimit="10" stroke-dasharray="" stroke-dashoffset="0" font-family="none" font-weight="none" font-size="none" text-anchor="none" style="mix-blend-mode: normal"><g transform="scale(5.33333,5.33333)"><path d="M47.776,8.156c-0.13,-0.107 -0.296,-0.163 -0.465,-0.156c-0.463,0 -1.062,0.314 -1.385,0.483l-0.128,0.065c-0.541,0.262 -1.13,0.41 -1.73,0.435c-0.615,0.02 -1.146,0.056 -1.836,0.128c-4.091,0.421 -5.916,3.556 -7.674,6.589c-0.957,1.65 -1.946,3.363 -3.301,4.672c-0.28,0.272 -0.578,0.525 -0.892,0.758c-1.402,1.042 -3.163,1.787 -4.533,2.314c-1.319,0.504 -2.759,0.957 -4.15,1.396c-1.275,0.401 -2.478,0.781 -3.584,1.191c-0.499,0.185 -0.923,0.327 -1.298,0.452c-1.008,0.327 -1.735,0.578 -2.797,1.309c-0.414,0.283 -0.83,0.589 -1.111,0.818c-0.843,0.673 -1.589,1.459 -2.217,2.335c-0.54,0.809 -1.164,1.558 -1.862,2.235c-0.224,0.219 -0.622,0.327 -1.218,0.327c-0.696,0.002 -2.611,-0.507 -3.896,-0.507c-1.712,0 -3.491,0.627 -3.699,1c0,0 2.911,1.894 3.014,1.996c-0.111,0.164 -1.818,2.503 -2.002,3.011c2.494,0.063 3.956,-0.306 5.356,-0.983c0.406,-0.196 0.818,-0.398 1.309,-0.605c0.818,-0.355 1.699,-0.921 2.633,-1.52c1.222,-0.797 2.501,-1.615 3.741,-2.01c1.019,-0.311 2.081,-0.46 3.147,-0.442c1.309,0 2.687,0.175 4.016,0.345c0.99,0.128 2.78,0.148 3.786,0.208c0.269,0.016 1.84,0.034 2.946,0.027c-1.188,2.615 -2.946,4.973 -2.946,4.973c0,0 6,0 8.548,-5.781c0.034,-0.067 0.063,-0.136 0.096,-0.203c1.58,-0.377 5.63,-2.513 6.706,-8.405c0.504,-1.712 0.874,-3.412 1.2,-4.909c0.389,-1.8 0.725,-3.343 1.109,-3.942c0.604,-0.939 1.525,-1.574 2.417,-2.191c0.121,-0.083 0.244,-0.164 0.363,-0.252c1.121,-0.787 2.235,-1.695 2.481,-3.389v-0.039c0.178,-1.263 0.028,-1.586 -0.144,-1.733z"></path></g></g><g fill="#000000" fill-rule="nonzero" stroke="none" stroke-width="1" stroke-linecap="butt" stroke-linejoin="miter" stroke-miterlimit="10" stroke-dasharray="" stroke-dashoffset="0" font-family="none" font-weight="none" font-size="none" text-anchor="none" style="mix-blend-mode: normal"><g><path d="M20.12667,22.16333h5.17l9.91,24.75l9.92,-24.75h5.19v30.34h-4v-11.82l0.37,-12.75l-9.95,24.57h-3.07l-9.93,-24.5l0.39,12.68v11.82h-4zM74.73667,52.50333h-4.05c-0.22,-0.44667 -0.4,-1.24 -0.54,-2.38v0c-1.79333,1.86 -3.93,2.79 -6.41,2.79v0c-2.22667,0 -4.05,-0.62667 -5.47,-1.88c-1.42667,-1.26 -2.14,-2.85333 -2.14,-4.78v0c0,-2.34667 0.89333,-4.17 2.68,-5.47c1.78667,-1.3 4.29667,-1.95 7.53,-1.95v0h3.75v-1.77c0,-1.34667 -0.40333,-2.42 -1.21,-3.22c-0.80667,-0.8 -1.99333,-1.2 -3.56,-1.2v0c-1.37333,0 -2.52667,0.34667 -3.46,1.04c-0.93333,0.7 -1.4,1.54333 -1.4,2.53v0h-3.87c0,-1.12667 0.4,-2.21667 1.2,-3.27c0.8,-1.04667 1.88333,-1.87333 3.25,-2.48c1.36667,-0.61333 2.87,-0.92 4.51,-0.92v0c2.59333,0 4.62667,0.65 6.1,1.95c1.47333,1.29333 2.23667,3.08 2.29,5.36v0v10.38c0,2.06667 0.26667,3.71 0.8,4.93v0zM64.29667,49.56333v0c1.20667,0 2.35333,-0.31333 3.44,-0.94c1.08,-0.62667 1.86333,-1.44 2.35,-2.44v0v-4.62h-3.02c-4.72,0 -7.08,1.38333 -7.08,4.15v0c0,1.20667 0.4,2.15 1.2,2.83c0.80667,0.68 1.84333,1.02 3.11,1.02zM90.87667,29.83333v3.58c-0.58,-0.09333 -1.21,-0.14 -1.89,-0.14v0c-2.53333,0 -4.25,1.07667 -5.15,3.23v0v16h-3.86v-22.54h3.76l0.06,2.6c1.26,-2.01333 3.05,-3.02 5.37,-3.02v0c0.75333,0 1.32333,0.09667 1.71,0.29zM98.60667,29.96333v22.54h-3.85v-22.54zM94.43667,23.98333v0c0,-0.62667 0.19333,-1.15667 0.58,-1.59c0.38,-0.42667 0.94333,-0.64 1.69,-0.64c0.75333,0 1.32333,0.21333 1.71,0.64c0.39333,0.43333 0.59,0.96333 0.59,1.59c0,0.62 -0.19667,1.14 -0.59,1.56c-0.38667,0.41333 -0.95667,0.62 -1.71,0.62c-0.74667,0 -1.31,-0.20667 -1.69,-0.62c-0.38667,-0.42 -0.58,-0.94 -0.58,-1.56zM122.73667,52.50333h-4.05c-0.22,-0.44667 -0.4,-1.24 -0.54,-2.38v0c-1.79333,1.86 -3.93,2.79 -6.41,2.79v0c-2.22667,0 -4.05,-0.62667 -5.47,-1.88c-1.42667,-1.26 -2.14,-2.85333 -2.14,-4.78v0c0,-2.34667 0.89333,-4.17 2.68,-5.47c1.78667,-1.3 4.29667,-1.95 7.53,-1.95v0h3.75v-1.77c0,-1.34667 -0.40333,-2.42 -1.21,-3.22c-0.80667,-0.8 -1.99333,-1.2 -3.56,-1.2v0c-1.37333,0 -2.52667,0.34667 -3.46,1.04c-0.93333,0.7 -1.4,1.54333 -1.4,2.53v0h-3.87c0,-1.12667 0.4,-2.21667 1.2,-3.27c0.8,-1.04667 1.88333,-1.87333 3.25,-2.48c1.36667,-0.61333 2.87,-0.92 4.51,-0.92v0c2.59333,0 4.62667,0.65 6.1,1.95c1.47333,1.29333 2.23667,3.08 2.29,5.36v0v10.38c0,2.06667 0.26667,3.71 0.8,4.93v0zM112.29667,49.56333v0c1.20667,0 2.35333,-0.31333 3.44,-0.94c1.08,-0.62667 1.86333,-1.44 2.35,-2.44v0v-4.62h-3.02c-4.72,0 -7.08,1.38333 -7.08,4.15v0c0,1.20667 0.4,2.15 1.2,2.83c0.80667,0.68 1.84333,1.02 3.11,1.02zM136.98667,52.50333h-8.4v-30.34h8.56c2.64,0 4.97333,0.58333 7,1.75c2.02667,1.16667 3.59333,2.82667 4.7,4.98c1.10667,2.15333 1.66667,4.62667 1.68,7.42v0v1.94c0,2.86 -0.55333,5.36667 -1.66,7.52c-1.10667,2.15333 -2.68333,3.80667 -4.73,4.96c-2.04667,1.15333 -4.43,1.74333 -7.15,1.77zM137.25667,25.46333h-4.67v23.77h4.21c3.08,0 5.48,-0.96 7.2,-2.88c1.71333,-1.91333 2.57,-4.64333 2.57,-8.19v0v-1.77c0,-3.44 -0.81,-6.11667 -2.43,-8.03c-1.62,-1.90667 -3.91333,-2.87333 -6.88,-2.9zM167.08667,52.50333h-10.52v-30.34h9.92c3.28667,0 5.76,0.68333 7.42,2.05c1.66,1.36 2.49,3.37333 2.49,6.04v0c0,1.41333 -0.40333,2.66667 -1.21,3.76c-0.8,1.08667 -1.89667,1.93 -3.29,2.53v0c1.64,0.46 2.93667,1.33 3.89,2.61c0.94667,1.28667 1.42,2.82 1.42,4.6v0c0,2.72 -0.88,4.85667 -2.64,6.41c-1.76667,1.56 -4.26,2.34 -7.48,2.34zM167.23667,38.31333h-6.67v10.92h6.6c1.86,0 3.33,-0.48333 4.41,-1.45c1.07333,-0.96667 1.61,-2.29667 1.61,-3.99v0c0,-3.65333 -1.98333,-5.48 -5.95,-5.48zM160.56667,25.46333v9.64h6.04c1.75333,0 3.15333,-0.43667 4.2,-1.31c1.04667,-0.87333 1.57,-2.06 1.57,-3.56v0c0,-1.66667 -0.48667,-2.88 -1.46,-3.64c-0.97333,-0.75333 -2.45,-1.13 -4.43,-1.13v0z"></path></g></g></svg>